<?xml version="1.0" standalone="no"?>
<!DOCTYPE svg PUBLIC "-//W3C//DTD SVG 20010904//EN"
 "http://www.w3.org/TR/2001/REC-SVG-20010904/DTD/svg10.dtd">
<svg version="1.0" xmlns="http://www.w3.org/2000/svg"
 width="1200.000000pt" height="1200.000000pt" viewBox="0 0 1200.000000 1200.000000"
 preserveAspectRatio="xMidYMid meet">

<g transform="translate(0.000000,1200.000000) scale(0.100000,-0.100000)"
fill="#000000" stroke="none">
<path d="M0 6000 l0 -6000 6000 0 6000 0 0 6000 0 6000 -6000 0 -6000 0 0
-6000z m3290 3060 c832 -72 1429 -385 1801 -944 210 -316 333 -677 396 -1161
25 -199 25 -739 0 -940 -42 -331 -122 -637 -228 -872 l-28 -62 -53 15 c-29 8
-100 18 -158 21 -372 19 -711 -223 -814 -580 -37 -128 -40 -248 -10 -419 6
-35 5 -37 -39 -56 -141 -62 -377 -128 -577 -161 -241 -40 -319 -43 -1167 -48
l-833 -5 0 2611 0 2611 798 0 c443 0 848 -5 912 -10z m5960 -925 c481 -79 878
-267 1220 -577 l63 -58 -124 -152 c-68 -85 -176 -217 -239 -295 l-114 -141
-81 63 c-228 178 -469 294 -722 349 -128 28 -319 40 -447 28 -446 -43 -696
-262 -696 -610 0 -142 42 -250 139 -355 101 -109 262 -204 536 -318 498 -205
926 -388 1034 -441 332 -164 579 -387 720 -648 50 -94 105 -256 128 -380 25
-134 25 -450 0 -573 -59 -294 -185 -526 -401 -743 -253 -252 -553 -404 -956
-483 -158 -31 -280 -41 -484 -41 -222 0 -344 11 -536 50 -476 96 -924 323
-1285 652 l-59 55 19 24 c66 83 508 599 514 599 3 0 47 -35 96 -76 274 -230
627 -406 950 -474 146 -30 395 -38 544 -16 320 48 528 177 626 391 42 90 55
154 55 268 0 164 -50 294 -155 402 -97 100 -247 187 -535 310 -303 129 -940
410 -1014 447 -415 208 -699 521 -810 888 -78 260 -75 586 8 835 127 378 427
695 827 871 172 76 372 131 554 153 50 6 104 13 120 15 66 9 415 -4 505 -19z
m-2540 -1887 c0 -1173 -4 -1896 -10 -1953 -17 -152 -49 -303 -94 -440 -188
-571 -606 -950 -1174 -1065 -146 -29 -453 -45 -604 -30 -369 35 -703 194 -968
460 -151 150 -244 288 -309 456 l-20 52 52 6 c153 21 463 104 600 161 45 19
82 35 83 35 1 0 19 -28 40 -62 113 -185 338 -326 570 -359 364 -52 733 169
863 516 71 189 71 191 71 2256 l0 1829 450 0 450 0 0 -1862z m-1588 -1319
c144 -29 323 -159 401 -290 87 -148 114 -342 68 -497 -68 -229 -254 -402 -481
-448 -523 -105 -929 434 -687 912 76 151 238 278 404 318 71 17 223 20 295 5z"/>
<path d="M2510 6465 l0 -1855 289 0 c384 0 552 22 776 100 358 126 621 364
784 711 86 182 141 382 178 639 25 178 25 672 0 850 -65 456 -206 771 -452
1009 -148 143 -298 233 -504 301 -232 78 -414 100 -808 100 l-263 0 0 -1855z"/>
</g>
</svg>
